<?xml version="1.0" encoding="UTF-8"?>
<svg id="Layer_2" xmlns="http://www.w3.org/2000/svg" viewBox="0 0 300 50.02">
    <defs>
        <style>.cls-1{fill:#fff;stroke-width:0px;}</style>
    </defs>
    <g id="Layer_1-2">
        <path class="cls-1"
            d="m198.49,21.18h-2.84c-8.85,0-14.57,5.66-14.57,14.42s5.72,14.42,14.57,14.42h2.84c8.85,0,14.57-5.66,14.57-14.42s-5.72-14.42-14.57-14.42Zm8.52,14.42c0,5.46-3.31,8.71-8.86,8.71h-2.16c-5.53,0-8.82-3.26-8.82-8.71s3.29-8.71,8.82-8.71h2.16c5.55,0,8.86,3.26,8.86,8.71Z" />
        <path class="cls-1"
            d="m260.65,21.18c-1.88,0-3.04,1.15-3.04,3v22.84c0,1.85,1.16,3,3.04,3s3.01-1.18,3.01-3v-22.84c0-1.82-1.18-3-3.01-3Z" />
        <path class="cls-1"
            d="m108.28,25.97c1.03-1.51.72-3.15-.79-4.18-1.55-1.06-3.16-.76-4.21.77l-12.96,18.99-12.97-18.99c-1.03-1.51-2.67-1.82-4.17-.79-1.55,1.06-1.87,2.67-.82,4.2,0,0,15.42,22.67,15.66,22.92.63.79,1.44,1.17,2.3,1.12.87.04,1.7-.35,2.33-1.15.21-.22,15.63-22.88,15.63-22.88Z" />
        <path class="cls-1"
            d="m291.29,32.75h-10.66c-2.58,0-2.97-1.84-2.97-2.93,0-1.33.52-2.93,2.97-2.93h15.62c1.71,0,2.86-1.15,2.86-2.85s-1.15-2.85-2.86-2.85h-15.95c-5.29,0-8.71,3.39-8.71,8.64s3.42,8.64,8.71,8.64h10.66c2.58,0,2.96,1.84,2.96,2.93,0,1.33-.51,2.93-2.96,2.93h-16.49c-1.72,0-2.89,1.14-2.89,2.85s1.13,2.86,2.89,2.86h16.82c5.29,0,8.71-3.39,8.71-8.64s-3.42-8.63-8.71-8.63Z" />
        <path class="cls-1"
            d="m146.06,24.18v22.84c0,1.85,1.17,3,3.04,3s3-1.18,3-3v-6.89h11.75l5.92,8.68c.52.77,1.29,1.22,2.1,1.22.1,0,.2-.01.29-.02,1.58-.2,2.51-1.47,2.33-3.14-.04-.42-.21-.85-.51-1.23l-4.28-6.25c2.98-1.28,4.77-4.27,4.77-8.22,0-.13,0-.27-.02-.4,0-.05,0-.11,0-.11,0-.06,0-.12,0-.18,0-.13.02-.26.02-.4,0-5.41-3.26-8.9-8.3-8.9h-17.09c-1.88,0-3.04,1.15-3.04,3Zm6.05,2.7h13.26c3.04,0,3.38,2.62,3.38,3.73,0,1.04-.31,3.43-2.89,3.7h-13.76v-7.44Z" />
        <path class="cls-1"
            d="m140.21,45.21s-15.42-22.67-15.65-22.92c-.63-.78-1.44-1.16-2.3-1.12-.87-.04-1.7.35-2.33,1.15-.21.22-15.63,22.88-15.63,22.88-1.03,1.51-.72,3.15.79,4.18,1.55,1.06,3.16.76,4.21-.77l3.18-4.66h19.55l3.18,4.67c1.03,1.51,2.67,1.82,4.18.79,1.55-1.06,1.86-2.67.82-4.2Zm-24.26-6.34l6.31-9.24,6.31,9.24h-12.61Z" />
        <path class="cls-1"
            d="m247.08,50.02c-1.87,0-2.99-1.12-2.99-2.99v-11.7c0-6.27-4.44-8.51-8.6-8.51h-2.18c-4.16,0-8.6,2.24-8.6,8.51v11.7c0,1.87-1.12,2.99-2.99,2.99s-3.03-1.14-3.03-2.99v-11.7c0-8.6,5.61-14.15,14.29-14.15h2.83c8.68,0,14.29,5.56,14.29,14.15v11.7c0,1.85-1.16,2.99-3.03,2.99Z" />
        <polygon class="cls-1" points="11.13 0 0 0 29.45 43.21 35 35.02 11.13 0" />
        <path class="cls-1"
            d="m37.42,38.57l-5.55,8.18.77,1.13c1.58,2.32,4.03,2.78,6.39,1.17,2.3-1.57,2.77-4.06,1.2-6.35l-2.82-4.13Z" />
        <polygon class="cls-1" points="32.43 0 21.3 0 40.07 27.55 45.62 19.37 32.43 0" />
        <path class="cls-1"
            d="m61.53,42.7l-13.49-19.8-5.55,8.18,11.45,16.79c1.58,2.32,4.03,2.78,6.39,1.17,2.3-1.57,2.77-4.06,1.21-6.35Z" />
    </g>
</svg>